Coordinates
version=1
nRows=16
nColumns=21
inDegrees=yes

Units are S.I. units (second, meters, Newtons, ...)
If the header above contains a line with 'inDegrees', this indicates whether rotational values are in degrees (yes) or radians (no).

endheader
time	sternoclavicular_r2	sternoclavicular_r3	unrotscap_r3	unrotscap_r2	acromioclavicular_r2	acromioclavicular_r3	acromioclavicular_r1	unrothum_r1	unrothum_r3	unrothum_r2	elv_angle	shoulder_elev	shoulder1_r2	shoulder_rot	elbow_flexion	pro_sup	deviation	flexion	wrist_hand_r1	wrist_hand_r3
      1.00502513	    -11.40443798	      4.83038167	     -4.83038167	     11.40443798	     -2.30916671	     18.66187307	      8.38838351	     -8.38838351	    -18.66187307	      2.30916671	    129.23217125	     47.12567117	   -129.23217125	     19.92652225	      0.61254739	      0.00000000	      0.00000000	     -0.00000000	     -0.00000000	      0.00000000
      1.02512563	    -11.43895991	      4.84500353	     -4.84500353	     11.43895991	     -2.31615670	     18.71836369	      8.41377566	     -8.41377566	    -18.71836369	      2.31615670	    129.31382225	     47.26832344	   -129.31382225	     19.92372544	      0.61137926	      0.00000000	      0.00000000	     -0.00000000	     -0.00000000	      0.00000000
      1.04522613	    -11.47586328	      4.86063405	     -4.86063405	     11.47586328	     -2.32362888	     18.77875123	      8.44091944	     -8.44091944	    -18.77875123	      2.32362888	    129.38559744	     47.42081636	   -129.38559744	     19.92366873	      0.59362859	      0.00000000	      0.00000000	     -0.00000000	     -0.00000000	      0.00000000
      1.06532663	    -11.51381012	      4.87670654	     -4.87670654	     11.51381012	     -2.33131234	     18.84084627	      8.46883073	     -8.46883073	    -18.84084627	      2.33131234	    129.46268811	     47.57762112	   -129.46268811	     19.92372456	      0.58040886	      0.00000000	      0.00000000	     -0.00000000	     -0.00000000	      0.00000000
      1.08542714	    -11.55274245	      4.89319644	     -4.89319644	     11.55274245	     -2.33919534	     18.90455395	      8.49746690	     -8.49746690	    -18.90455395	      2.33919534	    129.54078344	     47.73849816	   -129.54078344	     19.92320762	      0.56691887	      0.00000000	      0.00000000	     -0.00000000	     -0.00000000	      0.00000000
      1.10552764	    -11.59284416	      4.91018164	     -4.91018164	     11.59284416	     -2.34731513	     18.97017517	      8.52696318	     -8.52696318	    -18.97017517	      2.34731513	    129.61884888	     47.90420736	   -129.61884888	     19.92224333	      0.55036533	      0.00000000	      0.00000000	     -0.00000000	     -0.00000000	      0.00000000
      1.12562814	    -11.63436371	      4.92776735	     -4.92776735	     11.63436371	     -2.35572199	     19.03811648	      8.55750233	     -8.55750233	    -19.03811648	      2.35572199	    129.69695280	     48.07577534	   -129.69695280	     19.91993200	      0.53086703	      0.00000000	      0.00000000	     -0.00000000	     -0.00000000	      0.00000000
      1.14572864	    -11.67780580	      4.94616737	     -4.94616737	     11.67780580	     -2.36451813	     19.10920379	      8.58945559	     -8.58945559	    -19.10920379	      2.36451813	    129.77033433	     48.25528770	   -129.77033433	     19.91741517	      0.50412696	      0.00000000	      0.00000000	     -0.00000000	     -0.00000000	      0.00000000
      1.16582915	    -11.72333549	      4.96545160	     -4.96545160	     11.72333549	     -2.37373697	     19.18370718	      8.62294435	     -8.62294435	    -19.18370718	      2.37373697	    129.83419024	     48.44342651	   -129.83419024	     19.91601762	      0.46317341	      0.00000000	      0.00000000	     -0.00000000	     -0.00000000	      0.00000000
      1.18592965	    -11.77165667	      4.98591817	     -4.98591817	     11.77165667	     -2.38352102	     19.26277848	      8.65848636	     -8.65848636	    -19.26277848	      2.38352102	    129.88455110	     48.64310035	   -129.88455110	     19.91418831	      0.40855065	      0.00000000	      0.00000000	     -0.00000000	     -0.00000000	      0.00000000
      1.20603015	    -11.82174195	      5.00713193	     -5.00713193	     11.82174195	     -2.39366227	     19.34473650	      8.69532592	     -8.69532592	    -19.34473650	      2.39366227	    129.91911972	     48.85006385	   -129.91911972	     19.91336426	      0.34333032	      0.00000000	      0.00000000	     -0.00000000	     -0.00000000	      0.00000000
      1.22613065	    -11.87350765	      5.02905744	     -5.02905744	     11.87350765	     -2.40414377	     19.42944430	      8.73340150	     -8.73340150	    -19.42944430	      2.40414377	    129.94194454	     49.06397123	   -129.94194454	     19.91253521	      0.27599801	      0.00000000	      0.00000000	     -0.00000000	     -0.00000000	      0.00000000
      1.24623116	    -11.92505972	      5.05089247	     -5.05089247	     11.92505972	     -2.41458202	     19.51380254	      8.77131994	     -8.77131994	    -19.51380254	      2.41458202	    129.95657499	     49.27699584	   -129.95657499	     19.91178415	      0.21608006	      0.00000000	      0.00000000	     -0.00000000	     -0.00000000	      0.00000000
      1.26633166	    -11.97701432	      5.07289798	     -5.07289798	     11.97701432	     -2.42510177	     19.59881944	      8.80953446	     -8.80953446	    -19.59881944	      2.42510177	    129.96600879	     49.49168377	   -129.96600879	     19.91441867	      0.16509092	      0.00000000	      0.00000000	     -0.00000000	     -0.00000000	      0.00000000
      1.28643216	    -12.02712634	      5.09412307	     -5.09412307	     12.02712634	     -2.43524843	     19.68082122	      8.84639369	     -8.84639369	    -19.68082122	      2.43524843	    129.97277492	     49.69875776	   -129.97277492	     19.91446997	      0.13420103	      0.00000000	      0.00000000	     -0.00000000	     -0.00000000	      0.00000000
      1.30653266	    -12.07752206	      5.11546832	     -5.11546832	     12.07752206	     -2.44545254	     19.76328724	      8.88346160	     -8.88346160	    -19.76328724	      2.44545254	    129.97602290	     49.90700409	   -129.97602290	     19.91718536	      0.10914633	      0.00000000	      0.00000000	     -0.00000000	     -0.00000000	      0.00000000
